<?xml version="1.0" encoding="UTF-8"?>
<!-- Uploaded to: SVG Find, www.svgrepo.com, Generator: SVG Find Mixer Tools -->
<svg fill="#000000" width="800px" height="800px" version="1.1" viewBox="144 144 512 512" xmlns="http://www.w3.org/2000/svg">
 <path d="m644.03 525.95v-27.27c0-20.051-7.8086-38.902-21.988-53.082-14.176-14.176-33.031-21.988-53.082-21.988h-7.3125c-19.828 0-38.469 7.6602-52.594 21.547 5.793-13.926 9.0195-29.164 9.0195-45.16 0-4.0156-0.21094-7.9727-0.59766-11.879l47.68-47.68c4.6836 2.7617 10.066 4.457 15.895 4.457 17.367 0 31.488-14.121 31.488-31.488s-14.121-31.488-31.488-31.488c-17.367 0-31.488 14.121-31.488 31.488 0 5.8242 1.6914 11.211 4.4648 15.895l-40.109 40.109c-4.7461-17.656-13.453-33.66-25.16-47.035l64.977-64.977c7.7148 5.5039 17.129 8.7773 27.316 8.7773 26.047 0 47.23-21.184 47.23-47.23 0-26.047-21.184-47.23-47.23-47.23s-47.23 21.184-47.23 47.23c0 10.188 3.2734 19.602 8.7773 27.324l-64.977 64.977c-13.375-11.715-29.387-20.414-47.035-25.16l40.109-40.109c4.6836 2.7617 10.066 4.457 15.895 4.457 17.367 0 31.488-14.121 31.488-31.488 0-17.367-14.121-31.488-31.488-31.488-17.367 0-31.488 14.121-31.488 31.488 0 5.8242 1.6914 11.211 4.4648 15.895l-47.68 47.68c-3.9141-0.38672-7.8711-0.59766-11.887-0.59766-38.918 0-74.746 18.973-96.691 50.324-9.707-16.246-25.711-28.559-45.004-33.203v-7.7617c13.211-7.668 22.355-21.531 23.449-37.605 10.242-11.188 15.91-25.535 15.91-40.801 0-13.012-4.2969-25.914-12.281-36.543-9.5547-12.754-24.789-20.363-40.73-20.363-13.602 0-26.395 5.2969-36.016 14.918l-0.82812 0.82812h-1.3555c-9.2812 0-18.012 3.6133-24.57 10.18-6.5664 6.5586-10.18 15.289-10.18 24.57v5.9609c0 15.391 5.668 29.875 15.91 41.211 1.0859 16.09 10.234 29.969 23.449 37.637v7.7227c-31.82 7.5039-55.105 36.344-55.105 69.527v7.8711h128.37c-1.5742 7.7461-2.418 15.641-2.418 23.617 0 4.0156 0.21094 7.9727 0.59766 11.879l-47.68 47.68c-4.6836-2.7617-10.066-4.457-15.895-4.457-17.367 0-31.488 14.121-31.488 31.488 0 17.367 14.121 31.488 31.488 31.488 17.367 0 31.488-14.121 31.488-31.488 0-5.8242-1.6914-11.211-4.4648-15.895l40.109-40.109c4.7461 17.656 13.453 33.66 25.16 47.035l-64.977 64.977c-7.7148-5.5039-17.129-8.7773-27.316-8.7773-26.047 0-47.23 21.184-47.23 47.23s21.184 47.23 47.23 47.23c26.047 0 47.23-21.184 47.23-47.23 0-10.188-3.2734-19.602-8.7773-27.324l64.977-64.977c13.375 11.715 29.387 20.414 47.035 25.16l-40.109 40.109c-4.6836-2.7617-10.066-4.457-15.895-4.457-17.367 0-31.488 14.121-31.488 31.488s14.121 31.488 31.488 31.488 31.488-14.121 31.488-31.488c0-5.8242-1.6914-11.211-4.4648-15.895l47.68-47.68c3.9141 0.38672 7.8711 0.59766 11.887 0.59766 36.055 0 68.336-16.289 90.016-41.84-2.2344 7.1719-3.4258 14.711-3.4258 22.441v27.27c0 21.648 8.1484 42.445 22.594 58.309-13.934 13.145-22.594 31.699-22.594 51.898v7.8711h157.44v-7.8711c0-20.168-8.6367-38.707-22.625-51.859 14.461-15.871 22.625-36.676 22.625-58.348zm-62.977-228.29c8.6836 0 15.742 7.0625 15.742 15.742 0 8.6836-7.0625 15.742-15.742 15.742-8.6836 0-15.742-7.0625-15.742-15.742 0-8.6836 7.0625-15.742 15.742-15.742zm-94.465-94.465c8.6836 0 15.742 7.0625 15.742 15.742 0 8.6836-7.0625 15.742-15.742 15.742-8.6836 0-15.742-7.0625-15.742-15.742 0-8.6836 7.0625-15.742 15.742-15.742zm-267.65 299.14c-8.6836 0-15.742-7.0625-15.742-15.742 0-8.6836 7.0625-15.742 15.742-15.742 8.6836 0 15.742 7.0625 15.742 15.742 0 8.6836-7.0625 15.742-15.742 15.742zm94.465 94.465c-8.6836 0-15.742-7.0625-15.742-15.742 0-8.6836 7.0625-15.742 15.742-15.742 8.6836 0 15.742 7.0625 15.742 15.742 0 8.6836-7.0625 15.742-15.742 15.742zm181.03-157.44h-43.973c3.0156-12.84 4.6367-26.023 4.6367-39.359 0-13.336-1.6211-26.52-4.6289-39.359h43.973c5.0625 12.121 7.8867 25.418 7.8867 39.359s-2.8242 27.238-7.8945 39.359zm-133.8-39.359c0-13.367 1.7852-26.566 5.1016-39.359h68.512c3.3203 12.793 5.1094 25.992 5.1094 39.359 0 13.367-1.7852 26.566-5.1016 39.359h-68.512c-3.3203-12.793-5.1094-25.992-5.1094-39.359zm220.42-212.54c17.367 0 31.488 14.121 31.488 31.488 0 17.367-14.121 31.488-31.488 31.488-17.367 0-31.488-14.121-31.488-31.488 0-17.367 14.121-31.488 31.488-31.488zm-94.961 157.44h-40.125c-4.2734-12.668-9.9336-24.891-17.105-36.352l-4.9688-7.9414c26.008 6.2578 48.137 22.41 62.195 44.297zm-82.477-47.051 11.895 19.043c5.5586 8.8945 10.141 18.285 13.793 28.008h-58.621c3.6523-9.7227 8.2344-19.113 13.793-28.008l11.934-19.098c1.1953-0.046874 2.3867-0.125 3.5898-0.125 1.2188 0 2.4102 0.14063 3.6211 0.17969zm-27.48 2.6758-5.0156 8.0234c-7.1641 11.461-12.832 23.688-17.105 36.352h-40.227c14.391-22.523 36.777-38.273 62.348-44.375zm-79.043 60.117h-39.996l-6.3516-38.125 3.9922-7.9883c22.207 5.2734 39.125 23.695 42.359 46.113zm-98.172-145.16c-4.25 2.543-7.3594 6.4297-9.3047 10.863-1.4102-4.4492-2.1641-9.125-2.1641-13.926v-5.9609c0-5 2.0312-9.9023 5.5664-13.438 3.5352-3.5352 8.4375-5.5664 13.438-5.5664h7.8711l5.4414-5.4414c6.6445-6.6445 15.484-10.305 24.883-10.305 11.012 0 21.531 5.2578 28.316 14.297 5.7695 7.6992 8.9492 17.238 8.9492 26.867 0 5.0234-1 9.8633-2.6055 14.5-2.7539-5.3672-7.5352-9.6211-13.547-11.617l-14.059-4.6836c-10.18-3.3945-17.02-12.887-17.02-23.617h-15.742c0 5.0391 0.92188 9.9102 2.6367 14.43zm4.2734 20.246c0-2.7461 1.4648-5.3359 3.8242-6.7461l22.891-13.738c4.5195 4.8164 10.242 8.5742 16.824 10.77l14.059 4.6836c3.2109 1.0703 5.375 4.0703 5.375 7.4609v12.273c0 17.367-14.121 31.488-31.488 31.488-17.367 0-31.488-14.121-31.488-31.488zm31.488 61.938c2.6836 0 5.3047-0.27734 7.8711-0.70703v6.7227l-4.8633 9.7305h-6.0156l-4.8633-9.7305v-6.7227c2.5664 0.43359 5.1875 0.70703 7.8711 0.70703zm-20.035 16.902 3.9766 7.9492-6.3516 38.125h-39.996c3.2188-22.27 19.98-40.605 42.375-46.074zm13.578 46.074 5.25-31.488h2.4102l5.25 31.488zm72.219 15.742h12.957v-7.8711c0-2.6602-0.20312-5.2734-0.49609-7.8711h36.613c-3.0078 12.84-4.6289 26.023-4.6289 39.359 0 13.336 1.6211 26.52 4.6289 39.359h-43.973c-5.0625-12.121-7.8867-25.418-7.8867-39.359 0-7.9961 0.96094-15.91 2.7852-23.617zm-81.508 236.16c-17.367 0-31.488-14.121-31.488-31.488 0-17.367 14.121-31.488 31.488-31.488s31.488 14.121 31.488 31.488c0 17.367-14.121 31.488-31.488 31.488zm94.961-157.44h40.125c4.2734 12.668 9.9336 24.891 17.105 36.352l4.9688 7.9414c-26.008-6.2578-48.137-22.41-62.195-44.297zm82.477 47.051-11.895-19.043c-5.5586-8.8945-10.141-18.285-13.793-28.008h58.621c-3.6523 9.7227-8.2344 19.113-13.793 28.008l-11.895 19.043c-1.2188 0.039062-2.4102 0.17969-3.6289 0.17969s-2.4102-0.14062-3.6211-0.17969zm27.527-2.7539 4.9609-7.9414c7.1641-11.461 12.832-23.688 17.105-36.352h40.117c-14.051 21.883-36.18 38.039-62.18 44.297zm203.82 128.89h-124.82c2.7852-19.262 15.742-35.559 33.66-43.195l1.5508 6.2031c3.1172 12.516 14.305 21.246 27.199 21.246 12.895 0 24.082-8.7305 27.199-21.238l1.5742-6.2891c17.789 7.543 30.844 23.898 33.637 43.273zm-62.41-78.719c-17.367 0-31.488-14.121-31.488-31.488v-14.703c0-2.7461 1.4648-5.3359 3.8242-6.7461l27.664-16.602 27.672 16.602c2.3555 1.418 3.8164 4 3.8164 6.7461v14.703c0 17.367-14.121 31.488-31.488 31.488zm0 15.742c2.6836 0 5.3047-0.27734 7.8711-0.70703v8.582l0.55078 6.9023 5.1641 0.73828-1.668 6.6602c-1.3633 5.4883-6.2656 9.3125-11.918 9.3125s-10.555-3.8242-11.926-9.3125l-1.6602-6.6602 5.7148-0.83594v-15.391c2.5664 0.43359 5.1875 0.70703 7.8711 0.70703zm23.617 1.3711v-7.7617c14.09-8.1797 23.617-23.402 23.617-40.84v-14.703c0-8.25-4.3945-16.012-11.469-20.246l-35.762-21.461-35.762 21.461c-7.0781 4.2422-11.469 11.996-11.469 20.246v14.703c0 17.438 9.5234 32.66 23.617 40.84v7.7227c-7.1016 1.668-13.738 4.457-19.82 8.0625-12.445-13.105-19.539-30.535-19.539-48.75v-27.27c0-15.848 6.1719-30.742 17.375-41.949 11.203-11.211 26.105-17.375 41.949-17.375h7.3125c15.848 0 30.742 6.1719 41.949 17.375 11.211 11.203 17.367 26.105 17.367 41.949v27.27c0 18.246-7.1172 35.699-19.602 48.812-6.0547-3.5898-12.668-6.375-19.758-8.0859z"/>
</svg>