<svg width="28" height="28" viewBox="0 0 28 28" fill="none" xmlns="http://www.w3.org/2000/svg">
<g clip-path="url(#clip0_2_430)">
<path d="M14 0C12.8938 0 12 0.782031 12 1.75V2.8C7.43752 3.60938 4.00002 7.14219 4.00002 11.375V12.4031C4.00002 14.9734 2.91877 17.4562 0.968774 19.3813L0.506274 19.8352C-0.0187256 20.3492 -0.143726 21.0875 0.175024 21.7164C0.493774 22.3453 1.21252 22.75 2.00002 22.75H26C26.7875 22.75 27.5 22.3453 27.825 21.7164C28.15 21.0875 28.0188 20.3492 27.4938 19.8352L27.0313 19.3813C25.0813 17.4562 24 14.9789 24 12.4031V11.375C24 7.14219 20.5625 3.60938 16 2.8V1.75C16 0.782031 15.1063 0 14 0ZM16.8313 26.9773C17.5813 26.3211 18 25.4297 18 24.5H14H10C10 25.4297 10.4188 26.3211 11.1688 26.9773C11.9188 27.6336 12.9375 28 14 28C15.0625 28 16.0813 27.6336 16.8313 26.9773Z" fill="white"/>
</g>
<defs>
<clipPath id="clip0_2_430">
<rect width="28" height="28" fill="white"/>
</clipPath>
</defs>
</svg>
