<svg width="28" height="28" viewBox="0 0 28 28" fill="none" xmlns="http://www.w3.org/2000/svg">
<g clip-path="url(#clip0_32_17)">
<path d="M0 3.5C0 1.56953 1.39514 0 3.11111 0H10.8889V7C10.8889 7.96797 11.584 8.75 12.4444 8.75H18.6667V15.6242L14.4472 20.3711C13.9465 20.9344 13.5965 21.6344 13.4264 22.4055L12.5174 26.5016C12.4056 27.0047 12.4299 27.5297 12.5806 28.0055L3.11111 28C1.39514 28 0 26.4305 0 24.5V3.5ZM18.6667 7H12.4444V0L18.6667 7ZM26.7264 12.8898L27.4264 13.6773C28.1847 14.5305 28.1847 15.9141 27.4264 16.7727L25.9972 18.3805L22.5458 14.4977L23.975 12.8898C24.7333 12.0367 25.9632 12.0367 26.7264 12.8898ZM15.1618 22.8047L21.4424 15.7391L24.8937 19.6219L18.6132 26.682C18.4139 26.9062 18.166 27.0648 17.8889 27.1414L14.9674 27.9617C14.7 28.0383 14.4229 27.9508 14.2285 27.732C14.034 27.5133 13.9563 27.2016 14.0243 26.9008L14.7535 23.6141C14.8215 23.3078 14.9625 23.0234 15.1618 22.7992V22.8047Z" fill="#2096F2"/>
</g>
<defs>
<clipPath id="clip0_32_17">
<rect width="28" height="28" fill="white"/>
</clipPath>
</defs>
</svg>
