<svg width="28" height="28" viewBox="0 0 28 28" fill="none" xmlns="http://www.w3.org/2000/svg">
<g clip-path="url(#clip0_32_5)">
<path d="M9 7.875V10.5H19V7.875C19 5.45781 16.7625 3.5 14 3.5C11.2375 3.5 9 5.45781 9 7.875ZM5 10.5V7.875C5 3.52734 9.03125 0 14 0C18.9688 0 23 3.52734 23 7.875V10.5H24C26.2062 10.5 28 12.0695 28 14V24.5C28 26.4305 26.2062 28 24 28H4C1.79375 28 0 26.4305 0 24.5V14C0 12.0695 1.79375 10.5 4 10.5H5Z" fill="#2096F2"/>
</g>
<defs>
<clipPath id="clip0_32_5">
<rect width="28" height="28" fill="white"/>
</clipPath>
</defs>
</svg>
