<svg width="28" height="28" viewBox="0 0 28 28" fill="none" xmlns="http://www.w3.org/2000/svg">
<g clip-path="url(#clip0_32_30)">
<path d="M22.4383 12.6328L23.0563 12.0148L21.2023 10.1609L17.8063 6.76485L15.9523 4.91094L15.3344 5.52891L14.0984 6.76485L3.20469 17.6586C2.63594 18.2273 2.22031 18.9328 1.99063 19.7039L0.0546892 26.2883C-0.0820296 26.7477 0.0437517 27.2453 0.388283 27.5844C0.732814 27.9234 1.225 28.0492 1.68438 27.918L8.26328 25.982C9.03438 25.7523 9.73984 25.3367 10.3086 24.768L21.2023 13.8742L22.4383 12.6328ZM8.75 21.8422L8.25234 23.0836C8.03359 23.2531 7.7875 23.3789 7.525 23.4609L3.24844 24.7188L4.50625 20.4477C4.58281 20.1797 4.71406 19.9336 4.8836 19.7203L6.125 19.2227V20.9727C6.125 21.4539 6.51875 21.8477 7 21.8477H8.75V21.8422ZM19.8352 1.02266L19.0477 1.81563L17.8117 3.05157L17.1883 3.66953L19.0422 5.52344L22.4383 8.91953L24.2922 10.7734L24.9102 10.1555L26.1461 8.91953L26.9391 8.12657C28.3063 6.75938 28.3063 4.54453 26.9391 3.17735L24.7898 1.02266C23.4227 -0.344528 21.2078 -0.344528 19.8406 1.02266H19.8352ZM17.243 10.2102L9.36797 18.0852C9.02891 18.4242 8.47109 18.4242 8.13203 18.0852C7.79297 17.7461 7.79297 17.1883 8.13203 16.8492L16.007 8.97422C16.3461 8.63516 16.9039 8.63516 17.243 8.97422C17.582 9.31328 17.582 9.8711 17.243 10.2102Z" fill="#2096F2"/>
</g>
<defs>
<clipPath id="clip0_32_30">
<rect width="28" height="28" fill="white"/>
</clipPath>
</defs>
</svg>
