<svg width="28" height="28" viewBox="0 0 28 28" fill="none" xmlns="http://www.w3.org/2000/svg">
<g clip-path="url(#clip0_2_388)">
<path d="M19.25 14C19.25 15.2141 19.1844 16.3844 19.0695 17.5H8.93594C8.81562 16.3844 8.75547 15.2141 8.75547 14C8.75547 12.7859 8.82109 11.6156 8.93594 10.5H19.0695C19.1898 11.6156 19.25 12.7859 19.25 14ZM20.825 10.5H27.557C27.8469 11.6211 28 12.7914 28 14C28 15.2086 27.8469 16.3789 27.557 17.5H20.825C20.9398 16.3734 21 15.2031 21 14C21 12.7969 20.9398 11.6266 20.825 10.5ZM26.9828 8.75H20.6008C20.0539 5.25547 18.9711 2.32969 17.5766 0.459375C21.8586 1.59141 25.3422 4.69766 26.9773 8.75H26.9828ZM18.8289 8.75H9.17109C9.50469 6.75938 10.0188 4.99844 10.6477 3.57109C11.2219 2.28047 11.8617 1.34531 12.4797 0.754687C13.0922 0.175 13.6008 0 14 0C14.3992 0 14.9078 0.175 15.5203 0.754687C16.1383 1.34531 16.7781 2.28047 17.3523 3.57109C17.9867 4.99297 18.4953 6.75391 18.8289 8.75ZM7.39922 8.75H1.01719C2.65781 4.69766 6.13594 1.59141 10.4234 0.459375C9.02891 2.32969 7.94609 5.25547 7.39922 8.75ZM0.442969 10.5H7.175C7.06016 11.6266 7 12.7969 7 14C7 15.2031 7.06016 16.3734 7.175 17.5H0.442969C0.153125 16.3789 0 15.2086 0 14C0 12.7914 0.153125 11.6211 0.442969 10.5ZM10.6477 24.4234C10.0133 23.0016 9.50469 21.2406 9.17109 19.25H18.8289C18.4953 21.2406 17.9812 23.0016 17.3523 24.4234C16.7781 25.7141 16.1383 26.6492 15.5203 27.2398C14.9078 27.825 14.3992 28 14 28C13.6008 28 13.0922 27.825 12.4797 27.2453C11.8617 26.6547 11.2219 25.7195 10.6477 24.4289V24.4234ZM7.39922 19.25C7.94609 22.7445 9.02891 25.6703 10.4234 27.5406C6.13594 26.4086 2.65781 23.3023 1.01719 19.25H7.39922ZM26.9828 19.25C25.3422 23.3023 21.8641 26.4086 17.582 27.5406C18.9766 25.6703 20.0539 22.7445 20.6062 19.25H26.9883H26.9828Z" fill="#2096F2"/>
</g>
<defs>
<clipPath id="clip0_2_388">
<rect width="28" height="28" fill="white"/>
</clipPath>
</defs>
</svg>
