<svg width="60" height="60" viewBox="0 0 60 60" fill="none" xmlns="http://www.w3.org/2000/svg">
<g clip-path="url(#clip0_2_437)">
<path d="M54.5105 36.2167L54.4771 30.4744L60 27.3839L29.9176 11.5191L0 27.7012L11.9948 34.588L12.0187 38.6801L12.0211 39.0069L12.1307 38.9545C12.0043 39.1261 11.9233 39.3025 11.9257 39.479C11.9352 41.4916 20.0597 43.0844 30.0873 43.0298C40.1099 42.9773 48.2225 41.2915 48.2154 39.2835C48.2154 39.107 48.1224 38.9354 47.9984 38.759L48.108 38.8114V38.4846L48.0865 34.3759L53.2875 31.1399L53.316 36.224C52.7437 36.4696 52.3456 37.0324 52.3502 37.6907C52.3551 38.5539 53.0561 39.2525 53.9265 39.2454C54.8017 39.2405 55.4956 38.5347 55.4907 37.6738C55.4859 37.0155 55.0853 36.4576 54.5105 36.2167ZM30.0799 41.6442C21.1829 41.6942 13.9669 40.7164 13.9598 39.4695C13.9527 38.2222 21.159 37.1754 30.0563 37.13C38.9557 37.08 46.1693 38.0529 46.1742 39.2976C46.181 40.5402 38.9794 41.5966 30.0799 41.6442ZM47.6762 31.0421C46.472 29.7758 42.1557 26.4325 29.9989 26.5018C17.8252 26.5662 13.5639 29.9501 12.3741 31.2354L12.367 30.024C12.367 30.024 15.8199 24.7706 29.9896 24.6966C44.152 24.6202 47.6694 29.8332 47.6694 29.8332L47.6762 31.0421ZM52.6602 39.5886L52.0473 48.4809C53.9431 45.5025 55.5266 46.6113 55.5266 46.6113L55.4885 39.5742C53.4517 40.3733 52.6602 39.5886 52.6602 39.5886Z" fill="white"/>
</g>
<defs>
<clipPath id="clip0_2_437">
<rect width="60" height="60" fill="white"/>
</clipPath>
</defs>
</svg>
