<svg width="28" height="28" viewBox="0 0 28 28" fill="none" xmlns="http://www.w3.org/2000/svg">
<path d="M27.4859 15.2359C28.1695 14.5523 28.1695 13.4422 27.4859 12.7586L20.4859 5.75859C19.8023 5.075 18.6922 5.075 18.0086 5.75859C17.325 6.44219 17.325 7.55234 18.0086 8.23594L22.0227 12.25H10.5C9.53203 12.25 8.75 13.032 8.75 14C8.75 14.968 9.53203 15.75 10.5 15.75H22.0227L18.0086 19.7641C17.325 20.4477 17.325 21.5578 18.0086 22.2414C18.6922 22.925 19.8023 22.925 20.4859 22.2414L27.4859 15.2414V15.2359ZM8.75 5.25C9.71797 5.25 10.5 4.46797 10.5 3.5C10.5 2.53203 9.71797 1.75 8.75 1.75H5.25C2.35156 1.75 0 4.10156 0 7V21C0 23.8984 2.35156 26.25 5.25 26.25H8.75C9.71797 26.25 10.5 25.468 10.5 24.5C10.5 23.532 9.71797 22.75 8.75 22.75H5.25C4.28203 22.75 3.5 21.968 3.5 21V7C3.5 6.03203 4.28203 5.25 5.25 5.25H8.75Z" fill="#2096F2"/>
</svg>
