<svg width="28" height="28" viewBox="0 0 28 28" fill="none" xmlns="http://www.w3.org/2000/svg">
<g clip-path="url(#clip0_2_286)">
<path d="M19.25 17.5C24.0844 17.5 28 13.5844 28 8.75C28 7.91328 27.8797 7.10391 27.6609 6.33281C27.4914 5.74219 26.7641 5.61094 26.332 6.04297L22.132 10.243C21.968 10.407 21.7437 10.5 21.5141 10.5H18.375C17.8937 10.5 17.5 10.1062 17.5 9.625V6.48594C17.5 6.25625 17.593 6.03203 17.757 5.86797L21.957 1.66797C22.3891 1.23594 22.2523 0.508594 21.6672 0.339062C20.8961 0.120312 20.0867 0 19.25 0C14.4156 0 10.5 3.91562 10.5 8.75C10.5 9.79453 10.6859 10.8008 11.0195 11.7305L1.08828 21.6617C0.39375 22.3563 0 23.3023 0 24.2867C0 26.3375 1.6625 28 3.71328 28C4.69766 28 5.64375 27.6063 6.33828 26.9117L16.2695 16.9805C17.1992 17.3195 18.2055 17.5 19.25 17.5ZM4.375 22.3125C4.7231 22.3125 5.05694 22.4508 5.30308 22.6969C5.54922 22.9431 5.6875 23.2769 5.6875 23.625C5.6875 23.9731 5.54922 24.3069 5.30308 24.5531C5.05694 24.7992 4.7231 24.9375 4.375 24.9375C4.0269 24.9375 3.69306 24.7992 3.44692 24.5531C3.20078 24.3069 3.0625 23.9731 3.0625 23.625C3.0625 23.2769 3.20078 22.9431 3.44692 22.6969C3.69306 22.4508 4.0269 22.3125 4.375 22.3125Z" fill="#2096F2"/>
</g>
<defs>
<clipPath id="clip0_2_286">
<rect width="28" height="28" fill="white"/>
</clipPath>
</defs>
</svg>
