<svg width="28" height="28" viewBox="0 0 28 28" fill="none" xmlns="http://www.w3.org/2000/svg">
<g clip-path="url(#clip0_32_2)">
<path d="M14 14C16.1217 14 18.1566 13.2625 19.6569 11.9497C21.1571 10.637 22 8.85652 22 7C22 5.14348 21.1571 3.36301 19.6569 2.05025C18.1566 0.737498 16.1217 0 14 0C11.8783 0 9.84344 0.737498 8.34315 2.05025C6.84285 3.36301 6 5.14348 6 7C6 8.85652 6.84285 10.637 8.34315 11.9497C9.84344 13.2625 11.8783 14 14 14ZM11.1438 16.625C4.9875 16.625 0 20.9891 0 26.3758C0 27.2727 0.83125 28 1.85625 28H26.1437C27.1687 28 28 27.2727 28 26.3758C28 20.9891 23.0125 16.625 16.8563 16.625H11.1438Z" fill="#2096F2"/>
</g>
<defs>
<clipPath id="clip0_32_2">
<rect width="28" height="28" fill="white"/>
</clipPath>
</defs>
</svg>
