<svg width="60" height="60" viewBox="0 0 60 60" fill="none" xmlns="http://www.w3.org/2000/svg">
<rect width="60" height="60" fill="#2096F2"/>
<path d="M10 13.3333C10 11.4896 11.2768 10 12.8571 10H47.1429C48.7232 10 50 11.4896 50 13.3333C50 15.1771 48.7232 16.6667 47.1429 16.6667H12.8571C11.2768 16.6667 10 15.1771 10 13.3333ZM10 30C10 28.1562 11.2768 26.6667 12.8571 26.6667H47.1429C48.7232 26.6667 50 28.1562 50 30C50 31.8438 48.7232 33.3333 47.1429 33.3333H12.8571C11.2768 33.3333 10 31.8438 10 30ZM50 46.6667C50 48.5104 48.7232 50 47.1429 50H12.8571C11.2768 50 10 48.5104 10 46.6667C10 44.8229 11.2768 43.3333 12.8571 43.3333H47.1429C48.7232 43.3333 50 44.8229 50 46.6667Z" fill="white"/>
</svg>
