<svg width="28" height="28" viewBox="0 0 28 28" fill="none" xmlns="http://www.w3.org/2000/svg">
<g clip-path="url(#clip0_32_8)">
<path d="M27.1196 9.11094C27.2946 9.58672 27.1469 10.1172 26.7696 10.4562L24.4016 12.6109C24.4618 13.0648 24.4946 13.5297 24.4946 14C24.4946 14.4703 24.4618 14.9352 24.4016 15.3891L26.7696 17.5437C27.1469 17.8828 27.2946 18.4133 27.1196 18.8891C26.8789 19.5398 26.5891 20.1633 26.2555 20.7648L25.9985 21.2078C25.6375 21.8094 25.2329 22.3781 24.7899 22.9141C24.4672 23.3078 23.9313 23.4391 23.45 23.2859L20.4039 22.318C19.6711 22.8813 18.8618 23.3516 17.9977 23.707L17.3141 26.8297C17.2047 27.3273 16.8219 27.7211 16.3188 27.8031C15.5641 27.9289 14.7875 27.9945 13.9946 27.9945C13.2016 27.9945 12.425 27.9289 11.6704 27.8031C11.1672 27.7211 10.7844 27.3273 10.675 26.8297L9.99144 23.707C9.12738 23.3516 8.31801 22.8813 7.58519 22.318L4.54457 23.2914C4.06332 23.4445 3.52738 23.3078 3.20473 22.9195C2.76176 22.3836 2.35707 21.8148 1.99613 21.2133L1.7391 20.7703C1.40551 20.1687 1.11566 19.5453 0.875038 18.8945C0.700038 18.4188 0.847695 17.8883 1.22504 17.5492L3.59301 15.3945C3.53285 14.9352 3.50004 14.4703 3.50004 14C3.50004 13.5297 3.53285 13.0648 3.59301 12.6109L1.22504 10.4562C0.847695 10.1172 0.700038 9.58672 0.875038 9.11094C1.11566 8.46016 1.40551 7.83672 1.7391 7.23516L1.99613 6.79219C2.35707 6.19062 2.76176 5.62188 3.20473 5.08594C3.52738 4.69219 4.06332 4.56094 4.54457 4.71406L7.59066 5.68203C8.32348 5.11875 9.13285 4.64844 9.99691 4.29297L10.6805 1.17031C10.7899 0.672656 11.1727 0.278906 11.6758 0.196875C12.4305 0.065625 13.2071 0 14 0C14.793 0 15.5696 0.065625 16.3243 0.191406C16.8274 0.273438 17.2102 0.667187 17.3196 1.16484L18.0032 4.2875C18.8672 4.64297 19.6766 5.11328 20.4094 5.67656L23.4555 4.70859C23.9368 4.55547 24.4727 4.69219 24.7954 5.08047C25.2383 5.61641 25.643 6.18516 26.0039 6.78672L26.261 7.22969C26.5946 7.83125 26.8844 8.45469 27.125 9.10547L27.1196 9.11094ZM14 18.375C15.1604 18.375 16.2732 17.9141 17.0936 17.0936C17.9141 16.2731 18.375 15.1603 18.375 14C18.375 12.8397 17.9141 11.7269 17.0936 10.9064C16.2732 10.0859 15.1604 9.625 14 9.625C12.8397 9.625 11.7269 10.0859 10.9064 10.9064C10.086 11.7269 9.62504 12.8397 9.62504 14C9.62504 15.1603 10.086 16.2731 10.9064 17.0936C11.7269 17.9141 12.8397 18.375 14 18.375Z" fill="#2096F2"/>
</g>
<defs>
<clipPath id="clip0_32_8">
<rect width="28" height="28" fill="white"/>
</clipPath>
</defs>
</svg>
