<svg width="28" height="28" viewBox="0 0 28 28" fill="none" xmlns="http://www.w3.org/2000/svg">
<g clip-path="url(#clip0_2_292)">
<path d="M8.75 5.25C8.75 3.85761 9.30312 2.52226 10.2877 1.53769C11.2723 0.553123 12.6076 0 14 0C15.3924 0 16.7277 0.553123 17.7123 1.53769C18.6969 2.52226 19.25 3.85761 19.25 5.25C19.25 6.64239 18.6969 7.97774 17.7123 8.96231C16.7277 9.94688 15.3924 10.5 14 10.5C12.6076 10.5 11.2723 9.94688 10.2877 8.96231C9.30312 7.97774 8.75 6.64239 8.75 5.25ZM13.125 13.5625V28L10.4781 26.6766C9.33516 26.1078 8.09922 25.7469 6.825 25.6211L1.575 25.0961C0.683594 25.0031 0 24.2539 0 23.3516V12.25C0 11.282 0.782031 10.5 1.75 10.5H3.40703C6.88516 10.5 10.2758 11.5719 13.125 13.5625ZM14.875 28V13.5625C17.7242 11.5719 21.1148 10.5 24.593 10.5H26.25C27.218 10.5 28 11.282 28 12.25V23.3516C28 24.2484 27.3164 25.0031 26.425 25.0906L21.175 25.6156C19.9062 25.7414 18.6648 26.1023 17.5219 26.6711L14.875 28Z" fill="#2096F2"/>
</g>
<defs>
<clipPath id="clip0_2_292">
<rect width="28" height="28" fill="white"/>
</clipPath>
</defs>
</svg>
