<svg width="80" height="80" viewBox="0 0 80 80" fill="none" xmlns="http://www.w3.org/2000/svg">
<g clip-path="url(#clip0_32_45)">
<path d="M40 0C31.2917 0 23.875 4.17188 21.1458 10H13.3333C5.97917 10 0 14.4844 0 20V70C0 75.5156 5.97917 80 13.3333 80H66.6667C74.0208 80 80 75.5156 80 70V20C80 14.4844 74.0208 10 66.6667 10H58.8542C56.125 4.17188 48.7083 0 40 0ZM40 10C41.7681 10 43.4638 10.5268 44.714 11.4645C45.9643 12.4021 46.6667 13.6739 46.6667 15C46.6667 16.3261 45.9643 17.5979 44.714 18.5355C43.4638 19.4732 41.7681 20 40 20C38.2319 20 36.5362 19.4732 35.286 18.5355C34.0357 17.5979 33.3333 16.3261 33.3333 15C33.3333 13.6739 34.0357 12.4021 35.286 11.4645C36.5362 10.5268 38.2319 10 40 10ZM15 42.5C15 41.5054 15.5268 40.5516 16.4645 39.8483C17.4021 39.1451 18.6739 38.75 20 38.75C21.3261 38.75 22.5979 39.1451 23.5355 39.8483C24.4732 40.5516 25 41.5054 25 42.5C25 43.4946 24.4732 44.4484 23.5355 45.1516C22.5979 45.8549 21.3261 46.25 20 46.25C18.6739 46.25 17.4021 45.8549 16.4645 45.1516C15.5268 44.4484 15 43.4946 15 42.5ZM36.6667 40H63.3333C65.1667 40 66.6667 41.125 66.6667 42.5C66.6667 43.875 65.1667 45 63.3333 45H36.6667C34.8333 45 33.3333 43.875 33.3333 42.5C33.3333 41.125 34.8333 40 36.6667 40ZM15 57.5C15 56.5054 15.5268 55.5516 16.4645 54.8484C17.4021 54.1451 18.6739 53.75 20 53.75C21.3261 53.75 22.5979 54.1451 23.5355 54.8484C24.4732 55.5516 25 56.5054 25 57.5C25 58.4946 24.4732 59.4484 23.5355 60.1516C22.5979 60.8549 21.3261 61.25 20 61.25C18.6739 61.25 17.4021 60.8549 16.4645 60.1516C15.5268 59.4484 15 58.4946 15 57.5ZM33.3333 57.5C33.3333 56.125 34.8333 55 36.6667 55H63.3333C65.1667 55 66.6667 56.125 66.6667 57.5C66.6667 58.875 65.1667 60 63.3333 60H36.6667C34.8333 60 33.3333 58.875 33.3333 57.5Z" fill="#002F65"/>
</g>
<defs>
<clipPath id="clip0_32_45">
<rect width="80" height="80" fill="white"/>
</clipPath>
</defs>
</svg>
