<svg width="80" height="80" viewBox="0 0 80 80" fill="none" xmlns="http://www.w3.org/2000/svg">
<g clip-path="url(#clip0_32_33)">
<path d="M40 5C38.9875 5 37.9875 5.21875 37.0375 5.64062L1.97497 21.4687C0.787471 22.0156 -2.90913e-05 23.4219 -2.90913e-05 25C-2.90913e-05 26.5781 0.787471 27.9844 1.97497 28.5313L9.21247 31.7969C7.16247 35.8281 5.99997 40.5937 5.99997 45.6094V50C5.99997 54.4375 4.64997 59.0156 3.21247 62.625C2.39997 64.6562 1.47497 66.6562 0.399971 68.5C-2.90871e-05 69.1719 -0.112529 70.0469 0.112471 70.8437C0.337471 71.6406 0.862471 72.2344 1.51247 72.4375L9.51247 74.9375C10.0375 75.1094 10.6 74.9844 11.0625 74.625C11.525 74.2656 11.85 73.6719 11.95 73C13.025 66.3125 12.4875 60.3125 11.6875 56.0156C11.2875 53.7969 10.75 51.5313 9.99997 49.4531V45.6094C9.99997 40.8906 11.275 36.4375 13.4875 32.875C15.1 30.4531 17.1875 28.5 19.6375 27.2969L39.2625 17.6562C40.2875 17.1562 41.45 17.7813 41.85 19.0625C42.25 20.3437 41.75 21.7969 40.725 22.2969L21.1 31.9375C19.55 32.7031 18.1875 33.875 17.075 35.3125L37.025 44.3125C37.975 44.7344 38.975 44.9531 39.9875 44.9531C41 44.9531 42 44.7344 42.95 44.3125L78.025 28.5313C79.2125 28 80 26.5781 80 25C80 23.4219 79.2125 22.0156 78.025 21.4687L42.9625 5.64062C42.0125 5.21875 41.0125 5 40 5ZM16 63.75C16 69.2656 26.75 75 40 75C53.25 75 64 69.2656 64 63.75L62.0875 41.0313L44.3125 49.0625C42.925 49.6875 41.4625 50 40 50C38.5375 50 37.0625 49.6875 35.6875 49.0625L17.9125 41.0313L16 63.75Z" fill="#002F65"/>
</g>
<defs>
<clipPath id="clip0_32_33">
<rect width="80" height="80" fill="white"/>
</clipPath>
</defs>
</svg>
