<svg width="80" height="80" viewBox="0 0 80 80" fill="none" xmlns="http://www.w3.org/2000/svg">
<g clip-path="url(#clip0_32_39)">
<path d="M25 15C25 11.0218 26.5804 7.20644 29.3934 4.3934C32.2064 1.58035 36.0218 0 40 0C43.9782 0 47.7936 1.58035 50.6066 4.3934C53.4196 7.20644 55 11.0218 55 15C55 18.9782 53.4196 22.7936 50.6066 25.6066C47.7936 28.4196 43.9782 30 40 30C36.0218 30 32.2064 28.4196 29.3934 25.6066C26.5804 22.7936 25 18.9782 25 15ZM37.5 38.75V80L29.9375 76.2187C26.6719 74.5937 23.1406 73.5625 19.5 73.2031L4.5 71.7031C1.95312 71.4375 0 69.2969 0 66.7188V35C0 32.2344 2.23437 30 5 30H9.73437C19.6719 30 29.3594 33.0625 37.5 38.75ZM42.5 80V38.75C50.6406 33.0625 60.3281 30 70.2656 30H75C77.7656 30 80 32.2344 80 35V66.7188C80 69.2812 78.0469 71.4375 75.5 71.6875L60.5 73.1875C56.875 73.5469 53.3281 74.5781 50.0625 76.2031L42.5 80Z" fill="#002F65"/>
</g>
<defs>
<clipPath id="clip0_32_39">
<rect width="80" height="80" fill="white"/>
</clipPath>
</defs>
</svg>
