<svg width="80" height="80" viewBox="0 0 80 80" fill="none" xmlns="http://www.w3.org/2000/svg">
<g clip-path="url(#clip0_32_48)">
<path d="M39.1607 0.078125C39.7143 -0.015625 40.2857 -0.015625 40.8393 0.078125L76.5536 6.32813C78.5536 6.67188 80 8.21875 80 10C80 11.7813 78.5536 13.3281 76.5536 13.6719L62.8572 16.0781V25C62.8572 36.0469 52.625 45 40 45C27.375 45 17.1429 36.0469 17.1429 25V16.0781L8.57144 14.5781V24.75L11.375 37C11.5357 37.7344 11.3214 38.5 10.7857 39.0781C10.25 39.6563 9.42859 40 8.57144 40H2.85716C2.00001 40 1.19644 39.6719 0.642872 39.0781C0.0893003 38.4844 -0.124985 37.7344 0.053586 37L2.85716 24.75V13.5312C1.16073 13.0156 1.4602e-05 11.6094 1.4602e-05 10C1.4602e-05 8.21875 1.44644 6.67188 3.44644 6.32813L39.1607 0.078125ZM19.9822 51.2031C21.8572 50.6719 23.875 51.2656 25.2322 52.5313L37.9107 64.3281C39.0357 65.375 40.9464 65.375 42.0714 64.3281L54.75 52.5313C56.1072 51.2656 58.125 50.6719 60 51.2031C71.6072 54.4688 80 63.9687 80 75.2031C80 77.8594 77.5357 80 74.5179 80H5.48216C2.4643 80 1.4602e-05 77.8437 1.4602e-05 75.2031C1.4602e-05 63.9687 8.39287 54.4688 19.9822 51.2031Z" fill="#002F65"/>
</g>
<defs>
<clipPath id="clip0_32_48">
<rect width="80" height="80" fill="white"/>
</clipPath>
</defs>
</svg>
