<svg width="28" height="28" viewBox="0 0 28 28" fill="none" xmlns="http://www.w3.org/2000/svg">
<g clip-path="url(#clip0_32_11)">
<path d="M6.3 0C7.22826 0 8.1185 0.460936 8.77487 1.28141C9.43125 2.10188 9.8 3.21468 9.8 4.375C9.8 5.53532 9.43125 6.64812 8.77487 7.46859C8.1185 8.28906 7.22826 8.75 6.3 8.75C5.37174 8.75 4.4815 8.28906 3.82513 7.46859C3.16875 6.64812 2.8 5.53532 2.8 4.375C2.8 3.21468 3.16875 2.10188 3.82513 1.28141C4.4815 0.460936 5.37174 0 6.3 0ZM22.4 0C23.3283 0 24.2185 0.460936 24.8749 1.28141C25.5313 2.10188 25.9 3.21468 25.9 4.375C25.9 5.53532 25.5313 6.64812 24.8749 7.46859C24.2185 8.28906 23.3283 8.75 22.4 8.75C21.4717 8.75 20.5815 8.28906 19.9251 7.46859C19.2687 6.64812 18.9 5.53532 18.9 4.375C18.9 3.21468 19.2687 2.10188 19.9251 1.28141C20.5815 0.460936 21.4717 0 22.4 0ZM0 16.3352C0 13.1141 2.09125 10.5 4.66812 10.5H6.53625C7.23187 10.5 7.8925 10.6914 8.4875 11.0305C8.43062 11.4242 8.40438 11.8344 8.40438 12.25C8.40438 14.3391 9.13937 16.2148 10.2987 17.5C10.29 17.5 10.2812 17.5 10.2681 17.5H0.931875C0.42 17.5 0 16.975 0 16.3352ZM17.7319 17.5C17.7231 17.5 17.7144 17.5 17.7012 17.5C18.865 16.2148 19.5956 14.3391 19.5956 12.25C19.5956 11.8344 19.565 11.4297 19.5125 11.0305C20.1075 10.6859 20.7681 10.5 21.4637 10.5H23.3319C25.9087 10.5 28 13.1141 28 16.3352C28 16.9805 27.58 17.5 27.0681 17.5H17.7362H17.7319ZM9.8 12.25C9.8 10.8576 10.2425 9.52226 11.0302 8.53769C11.8178 7.55312 12.8861 7 14 7C15.1139 7 16.1822 7.55312 16.9698 8.53769C17.7575 9.52226 18.2 10.8576 18.2 12.25C18.2 13.6424 17.7575 14.9777 16.9698 15.9623C16.1822 16.9469 15.1139 17.5 14 17.5C12.8861 17.5 11.8178 16.9469 11.0302 15.9623C10.2425 14.9777 9.8 13.6424 9.8 12.25ZM5.6 26.5398C5.6 22.5148 8.21187 19.25 11.4319 19.25H16.5637C19.7881 19.25 22.4 22.5148 22.4 26.5398C22.4 27.3437 21.8794 28 21.2319 28H6.76375C6.12063 28 5.59562 27.3492 5.59562 26.5398H5.6Z" fill="#2096F2"/>
</g>
<defs>
<clipPath id="clip0_32_11">
<rect width="28" height="28" fill="white"/>
</clipPath>
</defs>
</svg>
